<?xml version="1.0" encoding="utf-8"?>
<!-- Generator: Adobe Illustrator 15.0.0, SVG Export Plug-In . SVG Version: 6.00 Build 0)  -->
<!DOCTYPE svg PUBLIC "-//W3C//DTD SVG 1.1//EN" "http://www.w3.org/Graphics/SVG/1.1/DTD/svg11.dtd">
<svg version="1.1" id="Layer_1" xmlns="http://www.w3.org/2000/svg" xmlns:xlink="http://www.w3.org/1999/xlink" x="0px" y="0px"
	 viewBox="0 0 135.958 70.55" enable-background="new 0 0 135.958 70.55" xml:space="preserve">
<text transform="matrix(1 0 0 1 2657.4917 -231.7383)" font-family="'Gang-Wolfik'" font-size="70">HASH</text>
<text transform="matrix(1 0 0 1 2607.6372 -201.3105)" font-family="'Gang-Wolfik'" font-size="70">KRAP</text>
<g>
	<path d="M-508.668-1127.03v-6.656h4.156v6.656H-508.668z M-508.189-1143.63v-6.657h18.758v6.657H-508.189z M-496.577-1151.486
		h-6.657v-5.834h6.657V-1151.486z M-496.577-1119.278h-6.657v-23.153h6.657V-1119.278z M-495.458-1127.03v-6.656h18.758v6.656
		H-495.458z M-481.655-1134.886h-6.657v-23.074h6.657V-1134.886z M-481.655-1120.077h-6.657v-5.754h6.657V-1120.077z
		 M-480.376-1143.63v-6.657h4.156v6.657H-480.376z"/>
</g>
<g>
	<g>
		<path fill="#3DCEC7" d="M6.224,31.338V15.246H3.541V9.883h2.683V1.838h5.363v8.045h18.774V1.838h5.363v39.326h-5.363V15.246
			H11.587v16.092H6.224z"/>
		<path fill="#3DCEC7" d="M38.406,31.338v-29.5h29.501v29.5h-5.364V15.246H43.77v16.092H38.406z M62.543,9.883V7.201H43.77v2.682
			H62.543z"/>
		<path fill="#3DCEC7" d="M70.59,31.338v-5.363h24.137V15.246H70.59V1.838h29.5v5.363H75.953v2.682h24.137v21.455H70.59z"/>
		<path fill="#3DCEC7" d="M102.772,31.338V15.246h-2.683V9.883h2.683V1.838h5.364v8.045h18.774V1.838h5.364v29.5h-5.364V15.246
			h-18.774v16.092H102.772z"/>
	</g>
	<path fill="#3DCEC7" d="M61.479,68.713L43.208,50.439L30.361,62.264V38.617h5.323v12.898l12.898-12.898h6.449l-8.599,8.598
		l21.496,21.498H61.479z"/>
	<path fill="#3DCEC7" d="M87.275,68.713L63.629,45.066h12.898v-2.15H61.479v19.348H57.18V38.617h23.646v10.748h-6.449l19.346,19.348
		H87.275z"/>
	<path fill="#3DCEC7" d="M82.976,62.264V38.617h23.646v23.646h-4.299V49.365H87.275v12.898H82.976z M102.323,45.066v-2.15H87.275
		v2.15H102.323z"/>
	<path fill="#3DCEC7" d="M108.771,62.264V38.617h23.646v10.748H115.22v-4.299h12.899v-2.15H113.07v19.348H108.771z"/>
	<g>
		<rect x="3.541" y="51.568" fill="#3DCEC7" width="2.146" height="5.365"/>
		<rect x="3.541" y="39.475" fill="#3DCEC7" width="15.336" height="5.363"/>
		<rect x="6.224" y="34.293" fill="#3DCEC7" width="5.363" height="4.682"/>
		<rect x="6.224" y="45.338" fill="#3DCEC7" width="5.362" height="16.926"/>
		<rect x="12.102" y="51.568" fill="#3DCEC7" width="15.313" height="5.365"/>
		<rect x="19.392" y="34.293" fill="#3DCEC7" width="5.363" height="16.777"/>
		<rect x="19.392" y="57.434" fill="#3DCEC7" width="5.363" height="4.83"/>
		<rect x="25.27" y="39.566" fill="#3DCEC7" width="2.146" height="5.363"/>
	</g>
</g>
<text transform="matrix(1 0 0 1 -544.4126 -1049.5479)" font-family="'Gang-Wolfik'" font-size="70">0.187mm</text>
</svg>
